<svg width="450" height="260" viewBox="0 0 450 260" fill="none" xmlns="http://www.w3.org/2000/svg">
<rect y="10" width="10" height="10" fill="#B8EE46"/>
<rect y="90" width="10" height="10" fill="#B8EE46"/>
<rect y="170" width="10" height="10" fill="#B8EE46"/>
<rect y="250" width="10" height="10" fill="#B8EE46"/>
<rect x="110" y="10" width="10" height="10" fill="#B8EE46"/>
<rect x="110" y="90" width="10" height="10" fill="#B8EE46"/>
<rect x="110" y="170" width="10" height="10" fill="#B8EE46"/>
<rect x="110" y="250" width="10" height="10" fill="#B8EE46"/>
<rect x="220" y="10" width="10" height="10" fill="#B8EE46"/>
<rect x="220" y="90" width="10" height="10" fill="#B8EE46"/>
<rect x="220" y="170" width="10" height="10" fill="#B8EE46"/>
<rect x="220" y="250" width="10" height="10" fill="#B8EE46"/>
<rect x="330" y="10" width="10" height="10" fill="#B8EE46"/>
<rect x="440" y="10" width="10" height="10" fill="#B8EE46"/>
<rect x="330" y="90" width="10" height="10" fill="#B8EE46"/>
<rect x="440" y="90" width="10" height="10" fill="#B8EE46"/>
<rect x="330" y="170" width="10" height="10" fill="#B8EE46"/>
<rect x="440" y="170" width="10" height="10" fill="#B8EE46"/>
<rect x="330" y="250" width="10" height="10" fill="#B8EE46"/>
<rect x="440" y="250" width="10" height="10" fill="#B8EE46"/>
</svg>
