<svg width="50" height="49" viewBox="0 0 50 49" fill="none" xmlns="http://www.w3.org/2000/svg">
<path d="M46 15.128V2H2V47H46V35.3306" stroke="#B8EE46" stroke-width="3" stroke-linecap="square"/>
<path d="M15.39 21V28H13.07V22.83H10.94V28H8.62V21H15.39ZM20.1878 22.43C20.6678 22.43 21.1078 22.5467 21.5078 22.78C21.9145 23.0067 22.2345 23.3367 22.4678 23.77C22.7078 24.2033 22.8278 24.7033 22.8278 25.27C22.8278 25.8367 22.7078 26.3367 22.4678 26.77C22.2345 27.1967 21.9145 27.5267 21.5078 27.76C21.1078 27.9867 20.6678 28.1 20.1878 28.1C19.5811 28.1 19.1178 27.9433 18.7978 27.63V29.94H16.5378V22.53H18.6878V22.98C19.0145 22.6133 19.5145 22.43 20.1878 22.43ZM19.6478 26.34C19.9078 26.34 20.1211 26.2467 20.2878 26.06C20.4545 25.8733 20.5378 25.61 20.5378 25.27C20.5378 24.93 20.4545 24.6667 20.2878 24.48C20.1211 24.2867 19.9078 24.19 19.6478 24.19C19.3878 24.19 19.1745 24.2867 19.0078 24.48C18.8411 24.6667 18.7578 24.93 18.7578 25.27C18.7578 25.61 18.8411 25.8733 19.0078 26.06C19.1745 26.2467 19.3878 26.34 19.6478 26.34ZM26.3793 28.1C25.7726 28.1 25.226 27.98 24.7393 27.74C24.2593 27.4933 23.8826 27.1567 23.6093 26.73C23.336 26.2967 23.1993 25.8067 23.1993 25.26C23.1993 24.7133 23.336 24.2267 23.6093 23.8C23.8826 23.3667 24.2593 23.03 24.7393 22.79C25.226 22.55 25.7726 22.43 26.3793 22.43C26.9926 22.43 27.5393 22.55 28.0193 22.79C28.506 23.03 28.8826 23.3667 29.1493 23.8C29.4226 24.2267 29.5593 24.7133 29.5593 25.26C29.5593 25.8067 29.4226 26.2967 29.1493 26.73C28.8826 27.1567 28.506 27.4933 28.0193 27.74C27.5393 27.98 26.9926 28.1 26.3793 28.1ZM26.3793 26.34C26.6393 26.34 26.8526 26.2467 27.0193 26.06C27.186 25.8667 27.2693 25.6 27.2693 25.26C27.2693 24.92 27.186 24.6567 27.0193 24.47C26.8526 24.2833 26.6393 24.19 26.3793 24.19C26.1193 24.19 25.906 24.2833 25.7393 24.47C25.5726 24.6567 25.4893 24.92 25.4893 25.26C25.4893 25.6 25.5726 25.8667 25.7393 26.06C25.906 26.2467 26.1193 26.34 26.3793 26.34ZM36.0085 25.26C36.0085 25.2933 35.9985 25.47 35.9785 25.79H32.1785C32.2585 25.9967 32.3918 26.1567 32.5785 26.27C32.7652 26.3767 32.9985 26.43 33.2785 26.43C33.5185 26.43 33.7185 26.4 33.8785 26.34C34.0452 26.28 34.2252 26.1767 34.4185 26.03L35.5985 27.22C35.0652 27.8067 34.2685 28.1 33.2085 28.1C32.5485 28.1 31.9685 27.98 31.4685 27.74C30.9685 27.4933 30.5818 27.1533 30.3085 26.72C30.0352 26.2867 29.8985 25.8 29.8985 25.26C29.8985 24.7133 30.0318 24.2267 30.2985 23.8C30.5718 23.3667 30.9418 23.03 31.4085 22.79C31.8818 22.55 32.4118 22.43 32.9985 22.43C33.5518 22.43 34.0552 22.54 34.5085 22.76C34.9685 22.98 35.3318 23.3033 35.5985 23.73C35.8718 24.1567 36.0085 24.6667 36.0085 25.26ZM33.0185 23.97C32.7852 23.97 32.5918 24.0333 32.4385 24.16C32.2852 24.2867 32.1852 24.4667 32.1385 24.7H33.8985C33.8518 24.4733 33.7518 24.2967 33.5985 24.17C33.4452 24.0367 33.2518 23.97 33.0185 23.97ZM39.511 26.18H39.081V28H36.821V22.53H39.081V24.45H39.571L40.771 22.53H43.151L41.391 25.15L43.261 28H40.601L39.511 26.18ZM48.9444 24.29H47.2744V28H45.0244V24.29H43.3544V22.53H48.9444V24.29Z" fill="#333333"/>
</svg>
